Coordinates
version=1
nRows=12
nColumns=46
inDegrees=yes

Units are S.I. units (second, meters, Newtons, ...)
Angles are in degrees.

endheader
time	pelvis_tilt	pelvis_list	pelvis_rotation	pelvis_tx	pelvis_ty	pelvis_tz	bb_angle	bb_tx	bb_ty	bb_tz	hip_flexion_r	hip_adduction_r	hip_rotation_r	knee_angle_r	knee_angle_r_beta	ankle_angle_r	subtalar_angle_r	mtp_angle_r	crank_angle_r	hip_flexion_l	hip_adduction_l	hip_rotation_l	knee_angle_l	knee_angle_l_beta	ankle_angle_l	subtalar_angle_l	mtp_angle_l	crank_angle_l	lumbar_extension	lumbar_bending	lumbar_rotation	arm_flex_r	arm_add_r	arm_rot_r	elbow_flex_r	pro_sup_r	wrist_flex_r	wrist_dev_r	arm_flex_l	arm_add_l	arm_rot_l	elbow_flex_l	pro_sup_l	wrist_flex_l	wrist_dev_l
      7.50500000	    -30.00059888	     -8.07955159	    -10.18332315	      0.19326014	      1.07944924	     -0.22189247	      0.00000000	      0.50000000	      0.00000000	      0.25000000	     95.93874272	      5.01804446	     -2.53723568	     98.05659744	      1.71141048	      3.09988019	     -1.53551332	      0.00000000	      0.00000000	     49.84254476	    -18.70531423	     -8.56042294	     39.70325294	      0.69295249	    -37.79772152	    -14.81236057	      0.00000000	      0.00000000	    -47.91270373	      0.91196365	      9.64555464	     85.03199259	    -19.00766985	     43.48824871	     59.00747478	     49.57017587	      0.00000000	      0.00000000	     74.22648167	    -18.96405789	     25.86664558	     67.32977496	     48.54484975	      0.00000000	      0.00000000
      7.51000000	    -30.08858418	     -8.00013183	    -10.16682992	      0.19152164	      1.08085408	     -0.22210690	      0.00000000	      0.50000000	      0.00000000	      0.25000000	     95.32856221	      5.01621546	     -2.58981880	     95.87908135	      1.67340565	      3.13176365	     -1.49522165	      0.00000000	      0.00000000	     50.60088350	    -18.58825447	     -7.83788464	     41.62473877	      0.72648874	    -37.76881486	    -15.62248582	      0.00000000	      0.00000000	    -47.91417011	      0.86797619	      9.55108943	     85.23781112	    -18.78505614	     43.38889145	     58.74720869	     49.51377923	      0.00000000	      0.00000000	     74.64388175	    -18.86554786	     25.94321976	     66.89705822	     48.49091065	      0.00000000	      0.00000000
      7.51500000	    -30.17528394	     -7.78070109	    -10.12760162	      0.18983379	      1.08211089	     -0.22222329	      0.00000000	      0.50000000	      0.00000000	      0.25000000	     94.65477764	      4.98683820	     -2.52894452	     93.63020502	      1.63415536	      3.12831828	     -1.49027598	      0.00000000	      0.00000000	     51.37085737	    -18.31463520	     -7.12494815	     43.56565114	      0.76036405	    -37.66553993	    -16.35504091	      0.00000000	      0.00000000	    -47.84150619	      0.69366947	      9.32170109	     85.40773417	    -18.54366668	     43.28014271	     58.41273273	     49.44406459	      0.00000000	      0.00000000	     75.07716421	    -18.75421597	     26.05431085	     66.36513436	     48.42495239	      0.00000000	      0.00000000
      7.52000000	    -30.29179192	     -7.67418803	    -10.02167869	      0.18809913	      1.08333032	     -0.22233565	      0.00000000	      0.50000000	      0.00000000	      0.25000000	     93.88120296	      4.93543828	     -2.56267707	     91.25843600	      1.59276018	      2.92808179	     -1.70245860	      0.00000000	      0.00000000	     52.25209247	    -18.04787627	     -6.18223966	     45.56092958	      0.79518823	    -37.46923970	    -16.99947885	      0.00000000	      0.00000000	    -47.60373110	      0.68407361	      9.17532580	     85.56839175	    -17.79520638	     42.81804485	     56.91794272	     49.14717649	      0.00000000	      0.00000000	     75.89487936	    -18.34883209	     26.77047162	     64.36367323	     48.24190377	      0.00000000	      0.00000000
      7.52500000	    -30.15904654	     -7.35003990	     -9.91028665	      0.18674921	      1.08482115	     -0.22242589	      0.00000000	      0.50000000	      0.00000000	      0.25000000	     92.81562146	      4.82047850	     -2.41808886	     88.85905869	      1.55088314	      2.73608483	     -1.63558423	      0.00000000	      0.00000000	     52.79593470	    -17.60361738	     -5.56988172	     47.56018927	      0.83008190	    -37.08165339	    -17.70647698	      0.00000000	      0.00000000	    -47.76818867	      0.38260838	      8.78703719	     85.67254698	    -17.64459038	     42.70787847	     56.86428352	     49.12399013	      0.00000000	      0.00000000	     76.35023522	    -18.30466728	     26.77866983	     64.17238885	     48.22013456	      0.00000000	      0.00000000
      7.53000000	    -30.15187048	     -7.11618277	     -9.74955156	      0.18522446	      1.08602940	     -0.22242433	      0.00000000	      0.50000000	      0.00000000	      0.25000000	     91.76324034	      4.67349847	     -2.40233874	     86.36027211	      1.50727109	      2.45555917	     -1.81098632	      0.00000000	      0.00000000	     53.57420154	    -17.16998586	     -4.75320098	     49.65167100	      0.86658514	    -36.53947575	    -18.27448194	      0.00000000	      0.00000000	    -47.70740253	      0.24376109	      8.46464939	     85.76964635	    -17.02242460	     42.23757686	     55.91244332	     48.91298101	      0.00000000	      0.00000000	     77.09467651	    -18.13342443	     27.40404315	     62.79631533	     48.14359893	      0.00000000	      0.00000000
      7.53500000	    -30.02594086	     -6.66726129	     -9.56076379	      0.18399784	      1.08742531	     -0.22249239	      0.00000000	      0.50000000	      0.00000000	      0.25000000	     90.54045162	      4.47295038	     -2.16337323	     83.83761348	      1.46324239	      2.23489856	     -1.68175794	      0.00000000	      0.00000000	     54.11303733	    -16.49474861	     -4.15884732	     51.64159230	      0.90131582	    -35.82782455	    -19.00612986	      0.00000000	      0.00000000	    -47.85587477	     -0.11385920	      7.95199255	     85.80415589	    -16.94595263	     42.14546451	     55.89527135	     48.89897215	      0.00000000	      0.00000000	     77.48637779	    -18.08279475	     27.40506576	     62.67939162	     48.13008264	      0.00000000	      0.00000000
      7.54000000	    -29.89858248	     -6.36464431	     -9.31110852	      0.18277337	      1.08866496	     -0.22249255	      0.00000000	      0.50000000	      0.00000000	      0.25000000	     89.21121753	      4.22788263	     -2.08432410	     81.26126565	      1.41827664	      1.98623979	     -1.72130200	      0.00000000	      0.00000000	     54.79946466	    -15.96859148	     -3.49492204	     53.82655509	      0.93945061	    -34.97076036	    -19.49228328	      0.00000000	      0.00000000	    -47.99562374	     -0.31753667	      7.50209958	     85.89924541	    -16.75986390	     41.94919320	     55.78689099	     48.85661872	      0.00000000	      0.00000000	     77.95434296	    -18.04751069	     27.49081057	     62.33649557	     48.09146317	      0.00000000	      0.00000000
      7.54500000	    -29.84466903	     -6.15839974	     -9.05482734	      0.18135626	      1.08976621	     -0.22239441	      0.00000000	      0.50000000	      0.00000000	      0.25000000	     87.85853805	      4.01709999	     -2.12361498	     78.57130540	      1.37132798	      1.50760286	     -2.02866539	      0.00000000	      0.00000000	     55.61091132	    -15.49703744	     -2.70209505	     56.03326696	      0.97796500	    -33.71718540	    -19.44965505	      0.00000000	      0.00000000	    -47.97842191	     -0.40873076	      7.18871624	     85.93293325	    -16.22615703	     41.32484215	     55.00079135	     48.65291903	      0.00000000	      0.00000000	     78.71355135	    -17.88799986	     28.18855475	     61.01812051	     47.99371840	      0.00000000	      0.00000000
      7.55000000	    -29.68030877	     -5.61970379	     -8.74704974	      0.18024722	      1.09083685	     -0.22237124	      0.00000000	      0.50000000	      0.00000000	      0.25000000	     86.40383331	      3.65514234	     -1.85728792	     75.88735213	      1.32448416	      1.17817418	     -1.93929761	      0.00000000	      0.00000000	     56.20479640	    -14.77340405	     -2.37832255	     58.12742328	      1.01451492	    -32.70214876	    -20.03480042	      0.00000000	      0.00000000	    -48.11183692	     -0.78322231	      6.57405883	     85.93161521	    -16.21711659	     41.13228768	     54.91351102	     48.61754705	      0.00000000	      0.00000000	     79.15012134	    -17.82124252	     28.25793062	     60.84675984	     47.97686850	      0.00000000	      0.00000000
      7.55500000	    -29.50463198	     -5.32309744	     -8.38475581	      0.17894474	      1.09158653	     -0.22215991	      0.00000000	      0.50000000	      0.00000000	      0.25000000	     84.87141015	      3.35423181	     -1.80995560	     73.18585557	      1.27733415	      0.68454740	     -2.26288589	      0.00000000	      0.00000000	     56.96647698	    -14.26006250	     -1.82274513	     60.43579791	      1.05480366	    -31.12894203	    -19.59133553	      0.00000000	      0.00000000	    -48.18882763	     -0.95309169	      6.18791965	     85.87791373	    -15.69321598	     40.09274164	     54.17582994	     48.38046658	      0.00000000	      0.00000000	     80.12251248	    -17.58381589	     29.27128716	     59.28923607	     47.88873370	      0.00000000	      0.00000000
      7.56000000	    -29.35937109	     -4.78664723	     -7.98025123	      0.17777570	      1.09231778	     -0.22223733	      0.00000000	      0.50000000	      0.00000000	      0.25000000	     83.33976443	      2.85518581	     -1.60242774	     70.44383157	      1.22947680	      0.28810685	     -2.13216715	      0.00000000	      0.00000000	     57.67669350	    -13.55978226	     -1.65323332	     62.55839747	      1.09185001	    -30.04868152	    -20.03144169	      0.00000000	      0.00000000	    -48.30971126	     -1.27176025	      5.52173433	     85.84542657	    -15.70376795	     39.95020449	     54.17088450	     48.36534144	      0.00000000	      0.00000000	     80.51047931	    -17.50807848	     29.33530883	     59.16627871	     47.87846060	      0.00000000	      0.00000000
